<svg width="154" height="84" viewBox="0 0 154 84" fill="none" xmlns="http://www.w3.org/2000/svg">
<circle cx="42" cy="42" r="40.5" fill="#C4C4C4" stroke="#313131"/>
<path d="M112 82.5C134.368 82.5 152.5 64.3675 152.5 42C152.5 19.6325 134.368 1.5 112 1.5C89.6325 1.5 71.5 19.6325 71.5 42C71.5 64.3675 89.6325 82.5 112 82.5Z" fill="#313131" stroke="#C4C4C4"/>
<path d="M64.7528 33.9687H53.554C53.3494 32.5198 52.9318 31.2329 52.3011 30.1079C51.6705 28.9659 50.8608 27.9943 49.8722 27.1931C48.8835 26.392 47.7415 25.7784 46.446 25.3522C45.1676 24.9261 43.7784 24.713 42.2784 24.713C39.5682 24.713 37.2074 25.3863 35.196 26.7329C33.1847 28.0625 31.625 30.0056 30.517 32.5625C29.4091 35.1022 28.8551 38.1875 28.8551 41.8181C28.8551 45.5511 29.4091 48.6875 30.517 51.2272C31.642 53.767 33.2102 55.6846 35.2216 56.9801C37.233 58.2755 39.5597 58.9233 42.2017 58.9233C43.6847 58.9233 45.0568 58.7272 46.3182 58.3352C47.5966 57.9431 48.7301 57.3721 49.7188 56.6221C50.7074 55.8551 51.5256 54.9261 52.1733 53.8352C52.8381 52.7443 53.2983 51.5 53.554 50.1022L64.7528 50.1534C64.4631 52.5568 63.7386 54.875 62.5796 57.1079C61.4375 59.3238 59.8949 61.3096 57.9517 63.0653C56.0256 64.8039 53.7244 66.1846 51.0483 67.2073C48.3892 68.213 45.3807 68.7159 42.0227 68.7159C37.3523 68.7159 33.1761 67.6591 29.4943 65.5454C25.8295 63.4318 22.9318 60.3721 20.8011 56.3664C18.6875 52.3608 17.6307 47.5113 17.6307 41.8181C17.6307 36.1079 18.7045 31.25 20.8523 27.2443C23 23.2386 25.9148 20.1875 29.5966 18.0909C33.2784 15.9772 37.4205 14.9204 42.0227 14.9204C45.0568 14.9204 47.8693 15.3465 50.4602 16.1988C53.0682 17.0511 55.3778 18.2954 57.3892 19.9318C59.4006 21.5511 61.0369 23.5369 62.2983 25.8892C63.5767 28.2414 64.3949 30.9346 64.7528 33.9687Z" fill="#313131"/>
<path d="M134.753 33.9687H123.554C123.349 32.5198 122.932 31.2329 122.301 30.1079C121.67 28.9659 120.861 27.9943 119.872 27.1931C118.884 26.392 117.741 25.7784 116.446 25.3522C115.168 24.9261 113.778 24.713 112.278 24.713C109.568 24.713 107.207 25.3863 105.196 26.7329C103.185 28.0625 101.625 30.0056 100.517 32.5625C99.4091 35.1022 98.8551 38.1875 98.8551 41.8181C98.8551 45.5511 99.4091 48.6875 100.517 51.2272C101.642 53.767 103.21 55.6846 105.222 56.9801C107.233 58.2755 109.56 58.9233 112.202 58.9233C113.685 58.9233 115.057 58.7272 116.318 58.3352C117.597 57.9431 118.73 57.3721 119.719 56.6221C120.707 55.8551 121.526 54.9261 122.173 53.8352C122.838 52.7443 123.298 51.5 123.554 50.1022L134.753 50.1534C134.463 52.5568 133.739 54.875 132.58 57.1079C131.437 59.3238 129.895 61.3096 127.952 63.0653C126.026 64.8039 123.724 66.1846 121.048 67.2073C118.389 68.213 115.381 68.7159 112.023 68.7159C107.352 68.7159 103.176 67.6591 99.4943 65.5454C95.8295 63.4318 92.9318 60.3721 90.8011 56.3664C88.6875 52.3608 87.6307 47.5113 87.6307 41.8181C87.6307 36.1079 88.7045 31.25 90.8523 27.2443C93 23.2386 95.9148 20.1875 99.5966 18.0909C103.278 15.9772 107.42 14.9204 112.023 14.9204C115.057 14.9204 117.869 15.3465 120.46 16.1988C123.068 17.0511 125.378 18.2954 127.389 19.9318C129.401 21.5511 131.037 23.5369 132.298 25.8892C133.577 28.2414 134.395 30.9346 134.753 33.9687Z" fill="#D4D4D4"/>
</svg>
