<svg width="363" height="84" viewBox="0 0 363 84" fill="none" xmlns="http://www.w3.org/2000/svg">
<path d="M173.356 51.3109C169.911 51.3109 167.201 50.6318 165.226 49.2737C163.291 47.9156 161.936 46.0724 161.161 43.7441C160.387 41.3771 160 38.6608 160 35.5953V18.7738C160 15.553 160.387 12.7591 161.161 10.3921C161.936 8.02506 163.291 6.20127 165.226 4.92074C167.201 3.64021 169.911 2.99994 173.356 2.99994C176.608 2.99994 179.144 3.5626 180.964 4.68792C182.822 5.77443 184.138 7.34599 184.913 9.4026C185.687 11.4592 186.074 13.8457 186.074 16.5619V20.5199H177.828V16.4455C177.828 15.1262 177.75 13.9233 177.596 12.8368C177.479 11.7502 177.112 10.8966 176.492 10.2757C175.911 9.61602 174.886 9.28619 173.414 9.28619C171.943 9.28619 170.859 9.63543 170.162 10.3339C169.504 10.9936 169.078 11.9055 168.885 13.0696C168.691 14.1949 168.595 15.4754 168.595 16.9112V37.3997C168.595 39.1071 168.73 40.5234 169.001 41.6487C169.272 42.7352 169.756 43.5695 170.453 44.1516C171.188 44.6948 172.176 44.9665 173.414 44.9665C174.847 44.9665 175.853 44.6366 176.434 43.977C177.054 43.2785 177.441 42.3666 177.596 41.2413C177.75 40.116 177.828 38.8548 177.828 37.4579V33.2088H186.074V36.9922C186.074 39.7861 185.706 42.2696 184.971 44.4426C184.235 46.5768 182.938 48.2648 181.08 49.5065C179.26 50.7094 176.686 51.3109 173.356 51.3109Z" fill="#676767"/>
<path d="M201.697 51.311C199.258 51.311 197.245 50.8647 195.658 49.9722C194.071 49.0409 192.871 47.7022 192.058 45.956C191.283 44.2098 190.896 42.095 190.896 39.6116V28.3196C190.896 25.8361 191.283 23.7213 192.058 21.9751C192.871 20.229 194.071 18.9096 195.658 18.0171C197.245 17.0858 199.258 16.6202 201.697 16.6202C204.136 16.6202 206.149 17.0858 207.737 18.0171C209.363 18.9096 210.563 20.229 211.337 21.9751C212.15 23.7213 212.557 25.8361 212.557 28.3196V39.6116C212.557 42.095 212.15 44.2098 211.337 45.956C210.563 47.7022 209.363 49.0409 207.737 49.9722C206.149 50.8647 204.136 51.311 201.697 51.311ZM201.755 45.8396C202.646 45.8396 203.304 45.5874 203.73 45.0829C204.156 44.5785 204.427 43.8994 204.543 43.0457C204.659 42.1532 204.717 41.1831 204.717 40.1354V27.7957C204.717 26.748 204.659 25.7973 204.543 24.9437C204.427 24.09 204.156 23.4109 203.73 22.9064C203.304 22.3632 202.646 22.0916 201.755 22.0916C200.865 22.0916 200.207 22.3632 199.781 22.9064C199.355 23.4109 199.065 24.09 198.91 24.9437C198.794 25.7973 198.736 26.748 198.736 27.7957V40.1354C198.736 41.1831 198.794 42.1532 198.91 43.0457C199.065 43.8994 199.355 44.5785 199.781 45.0829C200.207 45.5874 200.865 45.8396 201.755 45.8396Z" fill="#676767"/>
<path d="M217.962 50.9457V17.3026H225.859V20.6786C227.06 19.5145 228.318 18.5832 229.634 17.8847C230.989 17.1474 232.441 16.7788 233.989 16.7788C235.383 16.7788 236.486 17.128 237.299 17.8265C238.112 18.4862 238.713 19.3787 239.1 20.504C239.487 21.6293 239.68 22.8516 239.68 24.171V50.9457H231.783V25.7425C231.783 24.7336 231.628 23.9575 231.318 23.4143C231.008 22.871 230.408 22.5994 229.518 22.5994C228.976 22.5994 228.376 22.7546 227.718 23.065C227.098 23.3755 226.479 23.7635 225.859 24.2292V50.9457H217.962Z" fill="#676767"/>
<path d="M255.571 51.311C252.977 51.311 250.886 50.8259 249.299 49.8558C247.75 48.8469 246.608 47.4306 245.873 45.6068C245.176 43.7442 244.827 41.5518 244.827 39.0295V28.9017C244.827 26.3018 245.176 24.09 245.873 22.2662C246.608 20.4424 247.77 19.0454 249.357 18.0753C250.944 17.1052 253.015 16.6202 255.571 16.6202C257.971 16.6202 259.926 17.0082 261.436 17.7843C262.984 18.5216 264.107 19.6663 264.804 21.2185C265.501 22.7318 265.849 24.6526 265.849 26.9809V29.7748H258.416V26.8062C258.416 25.6421 258.319 24.7302 258.126 24.0706C257.971 23.3721 257.68 22.887 257.255 22.6154C256.829 22.305 256.267 22.1498 255.571 22.1498C254.874 22.1498 254.312 22.3438 253.886 22.7318C253.461 23.0811 253.151 23.6631 252.957 24.478C252.802 25.2929 252.725 26.4182 252.725 27.854V40.1936C252.725 42.3666 252.957 43.8412 253.422 44.6173C253.886 45.3546 254.622 45.7232 255.629 45.7232C256.403 45.7232 256.984 45.5486 257.371 45.1993C257.797 44.8501 258.068 44.3456 258.184 43.686C258.339 42.9875 258.416 42.1532 258.416 41.1831V37.5744H265.849V40.7757C265.849 43.0263 265.481 44.9471 264.746 46.5381C264.049 48.129 262.926 49.332 261.378 50.1468C259.868 50.9229 257.932 51.311 255.571 51.311Z" fill="#676767"/>
<path d="M271.217 50.9606V17.3175H279.114V22.4979C280.276 20.5189 281.437 19.1025 282.599 18.2488C283.76 17.3563 285.038 16.9101 286.431 16.9101C286.663 16.9101 286.857 16.9295 287.012 16.9683C287.205 16.9683 287.418 16.9877 287.651 17.0265V25.2336C287.186 25.0395 286.663 24.8843 286.083 24.7679C285.541 24.6127 284.979 24.5351 284.399 24.5351C283.353 24.5351 282.405 24.7873 281.553 25.2918C280.702 25.7962 279.889 26.6305 279.114 27.7946V50.9606H271.217Z" fill="#676767"/>
<path d="M301.677 51.311C299.161 51.311 297.109 50.8453 295.522 49.914C293.934 48.9439 292.754 47.547 291.979 45.7232C291.244 43.8606 290.876 41.6294 290.876 39.0295V28.9017C290.876 26.2242 291.244 23.9736 291.979 22.1498C292.754 20.326 293.934 18.9484 295.522 18.0171C297.148 17.0858 299.199 16.6202 301.677 16.6202C304.348 16.6202 306.42 17.1247 307.891 18.1336C309.401 19.1425 310.465 20.617 311.085 22.5572C311.743 24.4586 312.072 26.7868 312.072 29.5419V34.3148H298.716V40.9503C298.716 42.0368 298.812 42.9293 299.006 43.6278C299.238 44.3262 299.587 44.8307 300.051 45.1411C300.516 45.4516 301.077 45.6068 301.735 45.6068C302.432 45.6068 302.993 45.4516 303.419 45.1411C303.845 44.7919 304.155 44.3068 304.348 43.686C304.542 43.0263 304.639 42.2114 304.639 41.2413V38.4474H312.014V40.7175C312.014 44.1322 311.162 46.7515 309.459 48.5753C307.755 50.3991 305.161 51.311 301.677 51.311ZM298.716 30.415H304.639V27.2137C304.639 26.0496 304.542 25.1183 304.348 24.4198C304.155 23.6825 303.845 23.1587 303.419 22.8482C302.993 22.499 302.393 22.3244 301.619 22.3244C300.922 22.3244 300.361 22.499 299.935 22.8482C299.509 23.1975 299.199 23.7795 299.006 24.5944C298.812 25.4093 298.716 26.5734 298.716 28.0868V30.415Z" fill="#676767"/>
<path d="M327.129 51.311C325 51.311 323.316 50.9617 322.077 50.2633C320.877 49.5648 320.025 48.5559 319.522 47.2365C319.018 45.9172 318.767 44.3456 318.767 42.5219V22.499H315.399V17.2605H318.767V7.19084H326.723V17.2605H331.833V22.499H326.723V41.8234C326.723 42.9875 326.974 43.8218 327.477 44.3262C327.981 44.7919 328.736 45.0247 329.742 45.0247C330.168 45.0247 330.575 45.0053 330.962 44.9665C331.388 44.9277 331.794 44.8889 332.181 44.8501V50.9035C331.523 50.9811 330.749 51.0587 329.858 51.1364C329.007 51.2528 328.097 51.311 327.129 51.311Z" fill="#676767"/>
<path d="M346.875 51.311C344.359 51.311 342.307 50.8453 340.72 49.914C339.132 48.9439 337.951 47.547 337.177 45.7232C336.442 43.8606 336.074 41.6294 336.074 39.0295V28.9017C336.074 26.2242 336.442 23.9736 337.177 22.1498C337.951 20.326 339.132 18.9484 340.72 18.0171C342.346 17.0858 344.397 16.6202 346.875 16.6202C349.546 16.6202 351.618 17.1247 353.089 18.1336C354.599 19.1425 355.663 20.617 356.283 22.5572C356.941 24.4586 357.27 26.7868 357.27 29.5419V34.3148H343.913V40.9503C343.913 42.0368 344.01 42.9293 344.204 43.6278C344.436 44.3262 344.785 44.8307 345.249 45.1411C345.714 45.4516 346.275 45.6068 346.933 45.6068C347.63 45.6068 348.191 45.4516 348.617 45.1411C349.043 44.7919 349.353 44.3068 349.546 43.686C349.74 43.0263 349.837 42.2114 349.837 41.2413V38.4474H357.212V40.7175C357.212 44.1322 356.36 46.7515 354.657 48.5753C352.953 50.3991 350.359 51.311 346.875 51.311ZM343.913 30.415H349.837V27.2137C349.837 26.0496 349.74 25.1183 349.546 24.4198C349.353 23.6825 349.043 23.1587 348.617 22.8482C348.191 22.499 347.591 22.3244 346.817 22.3244C346.12 22.3244 345.559 22.499 345.133 22.8482C344.707 23.1975 344.397 23.7795 344.204 24.5944C344.01 25.4093 343.913 26.5734 343.913 28.0868V30.415Z" fill="#676767"/>
<path d="M184.426 62.6143H180.113C179.947 61.6603 179.639 60.8208 179.187 60.0957C178.735 59.3707 178.182 58.7554 177.528 58.2497C176.874 57.7441 176.141 57.3625 175.33 57.1049C174.528 56.8474 173.676 56.7186 172.773 56.7186C171.142 56.7186 169.681 57.1431 168.391 57.9922C167.11 58.8412 166.096 60.0862 165.35 61.7271C164.612 63.368 164.244 65.3714 164.244 67.7374C164.244 70.1224 164.612 72.1353 165.35 73.7762C166.096 75.4171 167.114 76.6573 168.405 77.4969C169.695 78.3364 171.146 78.7561 172.759 78.7561C173.653 78.7561 174.501 78.6321 175.303 78.3841C176.114 78.1265 176.846 77.7497 177.5 77.2536C178.155 76.7575 178.708 76.1517 179.159 75.4362C179.62 74.7112 179.938 73.8812 180.113 72.9462L184.426 72.9605C184.196 74.4011 183.749 75.7272 183.085 76.9388C182.431 78.1408 181.588 79.1807 180.555 80.0584C179.533 80.9265 178.362 81.5991 177.044 82.0761C175.726 82.5531 174.289 82.7916 172.731 82.7916C170.28 82.7916 168.096 82.1906 166.179 80.9885C164.262 79.7769 162.751 78.0454 161.645 75.7939C160.548 73.5425 160 70.857 160 67.7374C160 64.6082 160.553 61.9227 161.659 59.6808C162.765 57.4293 164.276 55.7025 166.193 54.5005C168.11 53.2889 170.289 52.6831 172.731 52.6831C174.234 52.6831 175.634 52.9073 176.934 53.3557C178.242 53.7945 179.417 54.4432 180.459 55.3019C181.5 56.1509 182.362 57.1908 183.044 58.4215C183.726 59.6426 184.186 61.0402 184.426 62.6143Z" fill="#313131"/>
<path d="M202.192 82.9999C200.846 82.9999 199.63 82.7423 198.542 82.2272C197.455 81.7025 196.593 80.944 195.957 79.9519C195.331 78.9597 195.017 77.7433 195.017 76.3028C195.017 75.0626 195.248 74.0418 195.708 73.2404C196.169 72.4391 196.791 71.8046 197.575 71.3372C198.358 70.8697 199.233 70.5167 200.201 70.2782C201.169 70.0397 202.155 69.8585 203.159 69.7344C204.431 69.5818 205.463 69.4578 206.256 69.3624C207.048 69.2574 207.624 69.0905 207.984 68.8615C208.343 68.6326 208.523 68.2605 208.523 67.7453V67.6452C208.523 66.3954 208.182 65.4271 207.5 64.7402C206.827 64.0533 205.822 63.7099 204.486 63.7099C203.095 63.7099 201.998 64.0295 201.196 64.6687C200.404 65.2983 199.855 65.9995 199.551 66.7722L195.667 65.8564C196.128 64.5208 196.8 63.4428 197.685 62.6223C198.579 61.7923 199.607 61.1913 200.768 60.8192C201.929 60.4376 203.15 60.2468 204.431 60.2468C205.279 60.2468 206.177 60.3518 207.127 60.5617C208.085 60.762 208.979 61.1341 209.808 61.6778C210.647 62.2216 211.333 62.9991 211.868 64.0104C212.402 65.0121 212.67 66.3143 212.67 67.9171V82.5134H208.633V79.5083H208.467C208.2 80.0616 207.799 80.6054 207.265 81.1396C206.73 81.6738 206.044 82.1175 205.205 82.4704C204.366 82.8234 203.362 82.9999 202.192 82.9999ZM203.09 79.5655C204.233 79.5655 205.21 79.3318 206.021 78.8643C206.841 78.3968 207.463 77.7863 207.887 77.0326C208.32 76.2694 208.537 75.4537 208.537 74.5856V71.7522C208.389 71.9048 208.103 72.0479 207.679 72.1815C207.265 72.3055 206.79 72.4152 206.256 72.5106C205.721 72.5965 205.2 72.6776 204.694 72.7539C204.187 72.8207 203.763 72.8779 203.422 72.9256C202.62 73.0305 201.887 73.207 201.224 73.4551C200.57 73.7031 200.044 74.0609 199.648 74.5283C199.261 74.9863 199.067 75.5968 199.067 76.36C199.067 77.419 199.445 78.2203 200.201 78.7641C200.957 79.2984 201.92 79.5655 203.09 79.5655Z" fill="#313131"/>
<path d="M244.919 65.8993L241.172 66.5862C241.016 66.0901 240.767 65.6179 240.426 65.1695C240.094 64.7211 239.643 64.3538 239.071 64.0676C238.5 63.7814 237.786 63.6383 236.929 63.6383C235.758 63.6383 234.781 63.9102 233.998 64.454C233.215 64.9883 232.823 65.6799 232.823 66.529C232.823 67.2636 233.086 67.855 233.611 68.3034C234.136 68.7518 234.984 69.1191 236.155 69.4053L239.527 70.2067C241.481 70.6741 242.937 71.3944 243.896 72.3675C244.854 73.3406 245.333 74.6047 245.333 76.1597C245.333 77.4762 244.965 78.6496 244.227 79.68C243.499 80.7008 242.481 81.5021 241.172 82.0841C239.873 82.666 238.366 82.957 236.652 82.957C234.275 82.957 232.335 82.4323 230.832 81.3829C229.33 80.3239 228.409 78.8214 228.068 76.8752L232.063 76.2455C232.312 77.3236 232.823 78.1393 233.597 78.6926C234.371 79.2364 235.38 79.5083 236.625 79.5083C237.979 79.5083 239.062 79.2173 239.873 78.6353C240.684 78.0438 241.089 77.3236 241.089 76.4745C241.089 75.7876 240.841 75.2104 240.343 74.743C239.855 74.2755 239.104 73.9225 238.09 73.684L234.496 72.8684C232.514 72.4009 231.049 71.6568 230.1 70.636C229.16 69.6152 228.69 68.3225 228.69 66.7579C228.69 65.4605 229.04 64.3252 229.74 63.3521C230.441 62.379 231.408 61.6206 232.643 61.0768C233.878 60.5235 235.293 60.2468 236.887 60.2468C239.182 60.2468 240.988 60.762 242.306 61.7923C243.624 62.8131 244.495 64.1821 244.919 65.8993Z" fill="#313131"/>
<path d="M270.622 60.533V63.9675H264.823H259.024V60.533H264.823H270.622ZM262.134 52.8056H266.268V76.0595C266.268 76.8895 266.387 77.5144 266.627 77.9341C266.867 78.3444 267.175 78.6258 267.553 78.7784C267.94 78.9215 268.36 78.9931 268.811 78.9931C269.143 78.9931 269.433 78.9692 269.682 78.9215C269.931 78.8738 270.124 78.8357 270.263 78.8071L271.009 82.3417C270.77 82.4371 270.429 82.5325 269.986 82.6279C269.544 82.7328 268.991 82.79 268.327 82.7996C267.24 82.8187 266.226 82.6183 265.286 82.1986C264.346 81.7788 263.586 81.1301 263.005 80.2524C262.425 79.3747 262.134 78.2728 262.134 76.9467V52.8056Z" fill="#313131"/>
<path d="M315.634 52.8056H319.92V72.482C319.92 74.5331 319.454 76.3505 318.523 77.9341C317.593 79.5083 316.284 80.7485 314.598 81.6548C312.911 82.5515 310.934 82.9999 308.667 82.9999C306.409 82.9999 304.437 82.5515 302.751 81.6548C301.064 80.7485 299.756 79.5083 298.825 77.9341C297.894 76.3505 297.429 74.5331 297.429 72.482V52.8056H301.7V72.1242C301.7 73.4503 301.981 74.6285 302.544 75.6588C303.115 76.6892 303.921 77.5001 304.963 78.0916C306.004 78.6735 307.239 78.9645 308.667 78.9645C310.105 78.9645 311.344 78.6735 312.386 78.0916C313.436 77.5001 314.238 76.6892 314.791 75.6588C315.353 74.6285 315.634 73.4503 315.634 72.1242V52.8056Z" fill="#313131"/>
<path d="M334.95 83V67.9028V52.8056H339.221V67.2015H339.567L351.892 52.8056H357.27L345.4 66.4002L357.27 83H352.127L342.566 69.4196L339.221 73.3978V83H334.95Z" fill="#313131"/>
<path fill-rule="evenodd" clip-rule="evenodd" d="M361.296 52.9735L160 52.9735V50.9606L361.296 50.9606V52.9735Z" fill="#313131"/>
<circle cx="42" cy="42" r="40.5" fill="#C4C4C4" stroke="#313131"/>
<path d="M112 82.5C134.368 82.5 152.5 64.3675 152.5 42C152.5 19.6325 134.368 1.5 112 1.5C89.6325 1.5 71.5 19.6325 71.5 42C71.5 64.3675 89.6325 82.5 112 82.5Z" fill="#313131" stroke="#C4C4C4"/>
<path d="M64.7528 33.9687H53.554C53.3494 32.5198 52.9318 31.2329 52.3011 30.1079C51.6705 28.9659 50.8608 27.9943 49.8722 27.1931C48.8835 26.392 47.7415 25.7784 46.446 25.3522C45.1676 24.9261 43.7784 24.713 42.2784 24.713C39.5682 24.713 37.2074 25.3863 35.196 26.7329C33.1847 28.0625 31.625 30.0056 30.517 32.5625C29.4091 35.1022 28.8551 38.1875 28.8551 41.8181C28.8551 45.5511 29.4091 48.6875 30.517 51.2272C31.642 53.767 33.2102 55.6846 35.2216 56.9801C37.233 58.2755 39.5597 58.9233 42.2017 58.9233C43.6847 58.9233 45.0568 58.7272 46.3182 58.3352C47.5966 57.9431 48.7301 57.3721 49.7188 56.6221C50.7074 55.8551 51.5256 54.9261 52.1733 53.8352C52.8381 52.7443 53.2983 51.5 53.554 50.1022L64.7528 50.1534C64.4631 52.5568 63.7386 54.875 62.5796 57.1079C61.4375 59.3238 59.8949 61.3096 57.9517 63.0653C56.0256 64.8039 53.7244 66.1846 51.0483 67.2073C48.3892 68.213 45.3807 68.7159 42.0227 68.7159C37.3523 68.7159 33.1761 67.6591 29.4943 65.5454C25.8295 63.4318 22.9318 60.3721 20.8011 56.3664C18.6875 52.3608 17.6307 47.5113 17.6307 41.8181C17.6307 36.1079 18.7045 31.25 20.8523 27.2443C23 23.2386 25.9148 20.1875 29.5966 18.0909C33.2784 15.9772 37.4205 14.9204 42.0227 14.9204C45.0568 14.9204 47.8693 15.3465 50.4602 16.1988C53.0682 17.0511 55.3778 18.2954 57.3892 19.9318C59.4006 21.5511 61.0369 23.5369 62.2983 25.8892C63.5767 28.2414 64.3949 30.9346 64.7528 33.9687Z" fill="#313131"/>
<path d="M134.753 33.9687H123.554C123.349 32.5198 122.932 31.2329 122.301 30.1079C121.67 28.9659 120.861 27.9943 119.872 27.1931C118.884 26.392 117.741 25.7784 116.446 25.3522C115.168 24.9261 113.778 24.713 112.278 24.713C109.568 24.713 107.207 25.3863 105.196 26.7329C103.185 28.0625 101.625 30.0056 100.517 32.5625C99.4091 35.1022 98.8551 38.1875 98.8551 41.8181C98.8551 45.5511 99.4091 48.6875 100.517 51.2272C101.642 53.767 103.21 55.6846 105.222 56.9801C107.233 58.2755 109.56 58.9233 112.202 58.9233C113.685 58.9233 115.057 58.7272 116.318 58.3352C117.597 57.9431 118.73 57.3721 119.719 56.6221C120.707 55.8551 121.526 54.9261 122.173 53.8352C122.838 52.7443 123.298 51.5 123.554 50.1022L134.753 50.1534C134.463 52.5568 133.739 54.875 132.58 57.1079C131.437 59.3238 129.895 61.3096 127.952 63.0653C126.026 64.8039 123.724 66.1846 121.048 67.2073C118.389 68.213 115.381 68.7159 112.023 68.7159C107.352 68.7159 103.176 67.6591 99.4943 65.5454C95.8295 63.4318 92.9318 60.3721 90.8011 56.3664C88.6875 52.3608 87.6307 47.5113 87.6307 41.8181C87.6307 36.1079 88.7045 31.25 90.8523 27.2443C93 23.2386 95.9148 20.1875 99.5966 18.0909C103.278 15.9772 107.42 14.9204 112.023 14.9204C115.057 14.9204 117.869 15.3465 120.46 16.1988C123.068 17.0511 125.378 18.2954 127.389 19.9318C129.401 21.5511 131.037 23.5369 132.298 25.8892C133.577 28.2414 134.395 30.9346 134.753 33.9687Z" fill="#D4D4D4"/>
</svg>
