<svg width="206" height="84" viewBox="0 0 206 84" fill="none" xmlns="http://www.w3.org/2000/svg">
<path d="M15.3564 50.3109C11.9108 50.3109 9.20082 49.6318 7.2264 48.2737C5.2907 46.9156 3.9357 45.0724 3.16142 42.7441C2.38714 40.3771 2 37.6608 2 34.5953V17.7738C2 14.553 2.38714 11.7591 3.16142 9.3921C3.9357 7.02506 5.2907 5.20127 7.2264 3.92074C9.20082 2.64021 11.9108 1.99994 15.3564 1.99994C18.6083 1.99994 21.1441 2.5626 22.9637 3.68792C24.8219 4.77443 26.1382 6.34599 26.9125 8.4026C27.6868 10.4592 28.0739 12.8457 28.0739 15.5619V19.5199H19.8278V15.4455C19.8278 14.1262 19.7504 12.9233 19.5955 11.8368C19.4794 10.7502 19.1116 9.89655 18.4922 9.27569C17.9115 8.61602 16.8856 8.28619 15.4144 8.28619C13.9433 8.28619 12.8593 8.63543 12.1624 9.3339C11.5043 9.99357 11.0784 10.9055 10.8849 12.0696C10.6913 13.1949 10.5945 14.4754 10.5945 15.9112V36.3997C10.5945 38.1071 10.73 39.5234 11.001 40.6487C11.272 41.7352 11.7559 42.5695 12.4528 43.1516C13.1884 43.6948 14.1756 43.9665 15.4144 43.9665C16.8468 43.9665 17.8534 43.6366 18.4341 42.977C19.0535 42.2785 19.4407 41.3666 19.5955 40.2413C19.7504 39.116 19.8278 37.8548 19.8278 36.4579V32.2088H28.0739V35.9922C28.0739 38.7861 27.7061 41.2696 26.9706 43.4426C26.235 45.5768 24.9381 47.2648 23.0798 48.5065C21.2602 49.7094 18.6858 50.3109 15.3564 50.3109Z" fill="#676767"/>
<path d="M43.6973 50.311C41.2583 50.311 39.2452 49.8647 37.6579 48.9722C36.0706 48.0409 34.8705 46.7022 34.0575 44.956C33.2832 43.2098 32.8961 41.095 32.8961 38.6116V27.3196C32.8961 24.8361 33.2832 22.7213 34.0575 20.9751C34.8705 19.229 36.0706 17.9096 37.6579 17.0171C39.2452 16.0858 41.2583 15.6202 43.6973 15.6202C46.1363 15.6202 48.1494 16.0858 49.7367 17.0171C51.3627 17.9096 52.5628 19.229 53.3371 20.9751C54.1501 22.7213 54.5566 24.8361 54.5566 27.3196V38.6116C54.5566 41.095 54.1501 43.2098 53.3371 44.956C52.5628 46.7022 51.3627 48.0409 49.7367 48.9722C48.1494 49.8647 46.1363 50.311 43.6973 50.311ZM43.7554 44.8396C44.6458 44.8396 45.3039 44.5874 45.7298 44.0829C46.1557 43.5785 46.4267 42.8994 46.5428 42.0457C46.6589 41.1532 46.717 40.1831 46.717 39.1354V26.7957C46.717 25.748 46.6589 24.7973 46.5428 23.9437C46.4267 23.09 46.1557 22.4109 45.7298 21.9064C45.3039 21.3632 44.6458 21.0916 43.7554 21.0916C42.865 21.0916 42.2068 21.3632 41.781 21.9064C41.3551 22.4109 41.0648 23.09 40.9099 23.9437C40.7938 24.7973 40.7357 25.748 40.7357 26.7957V39.1354C40.7357 40.1831 40.7938 41.1532 40.9099 42.0457C41.0648 42.8994 41.3551 43.5785 41.781 44.0829C42.2068 44.5874 42.865 44.8396 43.7554 44.8396Z" fill="#676767"/>
<path d="M59.9618 49.9457V16.3026H67.8594V19.6786C69.0596 18.5145 70.3178 17.5832 71.6341 16.8847C72.989 16.1474 74.4408 15.7788 75.9894 15.7788C77.3831 15.7788 78.4864 16.128 79.2994 16.8265C80.1124 17.4862 80.7125 18.3787 81.0996 19.504C81.4868 20.6293 81.6804 21.8516 81.6804 23.171V49.9457H73.7827V24.7425C73.7827 23.7336 73.6278 22.9575 73.3181 22.4143C73.0084 21.871 72.4083 21.5994 71.5179 21.5994C70.9759 21.5994 70.3758 21.7546 69.7177 22.065C69.0983 22.3755 68.4789 22.7635 67.8594 23.2292V49.9457H59.9618Z" fill="#676767"/>
<path d="M97.5705 50.311C94.9767 50.311 92.8861 49.8259 91.2988 48.8558C89.7503 47.8469 88.6082 46.4306 87.8726 44.6068C87.1758 42.7442 86.8274 40.5518 86.8274 38.0295V27.9017C86.8274 25.3018 87.1758 23.09 87.8726 21.2662C88.6082 19.4424 89.7696 18.0454 91.3569 17.0753C92.9442 16.1052 95.0154 15.6202 97.5705 15.6202C99.9708 15.6202 101.926 16.0082 103.436 16.7843C104.984 17.5216 106.107 18.6663 106.804 20.2185C107.501 21.7318 107.849 23.6526 107.849 25.9809V28.7748H100.416V25.8062C100.416 24.6421 100.319 23.7302 100.126 23.0706C99.9708 22.3721 99.6804 21.887 99.2546 21.6154C98.8287 21.305 98.2674 21.1498 97.5705 21.1498C96.8737 21.1498 96.3123 21.3438 95.8864 21.7318C95.4606 22.0811 95.1509 22.6631 94.9573 23.478C94.8024 24.2929 94.725 25.4182 94.725 26.854V39.1936C94.725 41.3666 94.9573 42.8412 95.4219 43.6173C95.8864 44.3546 96.622 44.7232 97.6286 44.7232C98.4029 44.7232 98.9836 44.5486 99.3707 44.1993C99.7966 43.8501 100.068 43.3456 100.184 42.686C100.339 41.9875 100.416 41.1532 100.416 40.1831V36.5744H107.849V39.7757C107.849 42.0263 107.481 43.9471 106.746 45.5381C106.049 47.129 104.926 48.332 103.378 49.1468C101.868 49.9229 99.9321 50.311 97.5705 50.311Z" fill="#676767"/>
<path d="M113.217 49.9606V16.3175H121.114V21.4979C122.276 19.5189 123.437 18.1025 124.599 17.2488C125.76 16.3563 127.038 15.9101 128.431 15.9101C128.663 15.9101 128.857 15.9295 129.012 15.9683C129.205 15.9683 129.418 15.9877 129.651 16.0265V24.2336C129.186 24.0395 128.663 23.8843 128.083 23.7679C127.541 23.6127 126.979 23.5351 126.399 23.5351C125.353 23.5351 124.405 23.7873 123.553 24.2918C122.702 24.7962 121.889 25.6305 121.114 26.7946V49.9606H113.217Z" fill="#676767"/>
<path d="M143.677 50.311C141.161 50.311 139.109 49.8453 137.522 48.914C135.934 47.9439 134.754 46.547 133.979 44.7232C133.244 42.8606 132.876 40.6294 132.876 38.0295V27.9017C132.876 25.2242 133.244 22.9736 133.979 21.1498C134.754 19.326 135.934 17.9484 137.522 17.0171C139.148 16.0858 141.199 15.6202 143.677 15.6202C146.348 15.6202 148.42 16.1247 149.891 17.1336C151.401 18.1425 152.465 19.617 153.085 21.5572C153.743 23.4586 154.072 25.7868 154.072 28.5419V33.3148H140.716V39.9503C140.716 41.0368 140.812 41.9293 141.006 42.6278C141.238 43.3262 141.587 43.8307 142.051 44.1411C142.516 44.4516 143.077 44.6068 143.735 44.6068C144.432 44.6068 144.993 44.4516 145.419 44.1411C145.845 43.7919 146.155 43.3068 146.348 42.686C146.542 42.0263 146.639 41.2114 146.639 40.2413V37.4474H154.014V39.7175C154.014 43.1322 153.162 45.7515 151.459 47.5753C149.755 49.3991 147.161 50.311 143.677 50.311ZM140.716 29.415H146.639V26.2137C146.639 25.0496 146.542 24.1183 146.348 23.4198C146.155 22.6825 145.845 22.1587 145.419 21.8482C144.993 21.499 144.393 21.3244 143.619 21.3244C142.922 21.3244 142.361 21.499 141.935 21.8482C141.509 22.1975 141.199 22.7795 141.006 23.5944C140.812 24.4093 140.716 25.5734 140.716 27.0868V29.415Z" fill="#676767"/>
<path d="M169.129 50.311C167 50.311 165.316 49.9617 164.077 49.2633C162.877 48.5648 162.025 47.5559 161.522 46.2365C161.018 44.9172 160.767 43.3456 160.767 41.5219V21.499H157.399V16.2605H160.767V6.19084H168.723V16.2605H173.833V21.499H168.723V40.8234C168.723 41.9875 168.974 42.8218 169.477 43.3262C169.981 43.7919 170.736 44.0247 171.742 44.0247C172.168 44.0247 172.575 44.0053 172.962 43.9665C173.388 43.9277 173.794 43.8889 174.181 43.8501V49.9035C173.523 49.9811 172.749 50.0587 171.858 50.1364C171.007 50.2528 170.097 50.311 169.129 50.311Z" fill="#676767"/>
<path d="M188.875 50.311C186.359 50.311 184.307 49.8453 182.72 48.914C181.132 47.9439 179.951 46.547 179.177 44.7232C178.442 42.8606 178.074 40.6294 178.074 38.0295V27.9017C178.074 25.2242 178.442 22.9736 179.177 21.1498C179.951 19.326 181.132 17.9484 182.72 17.0171C184.346 16.0858 186.397 15.6202 188.875 15.6202C191.546 15.6202 193.618 16.1247 195.089 17.1336C196.599 18.1425 197.663 19.617 198.283 21.5572C198.941 23.4586 199.27 25.7868 199.27 28.5419V33.3148H185.913V39.9503C185.913 41.0368 186.01 41.9293 186.204 42.6278C186.436 43.3262 186.785 43.8307 187.249 44.1411C187.714 44.4516 188.275 44.6068 188.933 44.6068C189.63 44.6068 190.191 44.4516 190.617 44.1411C191.043 43.7919 191.353 43.3068 191.546 42.686C191.74 42.0263 191.837 41.2114 191.837 40.2413V37.4474H199.212V39.7175C199.212 43.1322 198.36 45.7515 196.657 47.5753C194.953 49.3991 192.359 50.311 188.875 50.311ZM185.913 29.415H191.837V26.2137C191.837 25.0496 191.74 24.1183 191.546 23.4198C191.353 22.6825 191.043 22.1587 190.617 21.8482C190.191 21.499 189.591 21.3244 188.817 21.3244C188.12 21.3244 187.559 21.499 187.133 21.8482C186.707 22.1975 186.397 22.7795 186.204 23.5944C186.01 24.4093 185.913 25.5734 185.913 27.0868V29.415Z" fill="#676767"/>
<path d="M26.426 61.6143H22.1131C21.9472 60.6603 21.6385 59.8208 21.1869 59.0957C20.7354 58.3707 20.1824 57.7554 19.5281 57.2497C18.8738 56.7441 18.1412 56.3625 17.3302 56.1049C16.5284 55.8474 15.676 55.7186 14.7729 55.7186C13.1417 55.7186 11.681 56.1431 10.3908 56.9922C9.10986 57.8412 8.09614 59.0862 7.34967 60.7271C6.61242 62.368 6.2438 64.3714 6.2438 66.7374C6.2438 69.1224 6.61242 71.1353 7.34967 72.7762C8.09614 74.4171 9.11447 75.6573 10.4047 76.4969C11.6948 77.3364 13.1463 77.7561 14.759 77.7561C15.653 77.7561 16.5008 77.6321 17.3026 77.3841C18.1135 77.1265 18.8462 76.7497 19.5005 76.2536C20.1548 75.7575 20.7077 75.1517 21.1593 74.4362C21.6201 73.7112 21.938 72.8812 22.1131 71.9462L26.426 71.9605C26.1956 73.4011 25.7487 74.7272 25.0852 75.9388C24.4308 77.1408 23.5876 78.1807 22.5555 79.0584C21.5325 79.9265 20.3621 80.5991 19.0443 81.0761C17.7265 81.5531 16.2888 81.7916 14.7314 81.7916C12.28 81.7916 10.0959 81.1906 8.17908 79.9885C6.26223 78.7769 4.75087 77.0454 3.64499 74.7939C2.54833 72.5425 2 69.857 2 66.7374C2 63.6082 2.55294 60.9227 3.65881 58.6808C4.76469 56.4293 6.27605 54.7025 8.1929 53.5005C10.1098 52.2889 12.2893 51.6831 14.7314 51.6831C16.2335 51.6831 17.6343 51.9073 18.9337 52.3557C20.2423 52.7945 21.4173 53.4432 22.4587 54.3019C23.5001 55.1509 24.3617 56.1908 25.0437 57.4215C25.7256 58.6426 26.1864 60.0402 26.426 61.6143Z" fill="#313131"/>
<path d="M44.1915 81.9999C42.8461 81.9999 41.6296 81.7423 40.5421 81.2272C39.4547 80.7025 38.593 79.944 37.9572 78.9519C37.3305 77.9597 37.0172 76.7433 37.0172 75.3028C37.0172 74.0626 37.2476 73.0418 37.7083 72.2404C38.1691 71.4391 38.7912 70.8046 39.5745 70.3372C40.3578 69.8697 41.2333 69.5167 42.201 69.2782C43.1686 69.0397 44.1547 68.8585 45.1592 68.7344C46.4309 68.5818 47.4631 68.4578 48.2556 68.3624C49.0482 68.2574 49.6242 68.0905 49.9836 67.8615C50.343 67.6326 50.5227 67.2605 50.5227 66.7453V66.6452C50.5227 65.3954 50.1817 64.4271 49.4997 63.7402C48.827 63.0533 47.8225 62.7099 46.4862 62.7099C45.0947 62.7099 43.998 63.0295 43.1963 63.6687C42.4037 64.2983 41.8554 64.9995 41.5513 65.7722L37.6669 64.8564C38.1277 63.5208 38.8004 62.4428 39.6851 61.6223C40.579 60.7923 41.6066 60.1913 42.7677 59.8192C43.9289 59.4376 45.15 59.2468 46.4309 59.2468C47.2788 59.2468 48.1773 59.3518 49.1265 59.5617C50.0849 59.762 50.9789 60.1341 51.8083 60.6778C52.6469 61.2216 53.3334 61.9991 53.868 63.0104C54.4025 64.0121 54.6697 65.3143 54.6697 66.9171V81.5134H50.6333V78.5083H50.4674C50.2001 79.0616 49.7993 79.6054 49.2647 80.1396C48.7302 80.6738 48.0437 81.1175 47.2051 81.4704C46.3664 81.8234 45.3619 81.9999 44.1915 81.9999ZM45.0901 78.5655C46.2328 78.5655 47.2097 78.3318 48.0206 77.8643C48.8408 77.3968 49.4629 76.7863 49.8868 76.0326C50.3199 75.2694 50.5365 74.4537 50.5365 73.5856V70.7522C50.3891 70.9048 50.1034 71.0479 49.6794 71.1815C49.2647 71.3055 48.7901 71.4152 48.2556 71.5106C47.7211 71.5965 47.2004 71.6776 46.6936 71.7539C46.1867 71.8207 45.7628 71.8779 45.4218 71.9256C44.6201 72.0305 43.8874 72.207 43.2239 72.4551C42.5696 72.7031 42.0443 73.0609 41.648 73.5283C41.261 73.9863 41.0674 74.5968 41.0674 75.36C41.0674 76.419 41.4453 77.2203 42.201 77.7641C42.9566 78.2984 43.9197 78.5655 45.0901 78.5655Z" fill="#313131"/>
<path d="M86.9186 64.8993L83.1724 65.5862C83.0158 65.0901 82.7669 64.6179 82.426 64.1695C82.0942 63.7211 81.6426 63.3538 81.0713 63.0676C80.4999 62.7814 79.7857 62.6383 78.9286 62.6383C77.7582 62.6383 76.7814 62.9102 75.9981 63.454C75.2147 63.9883 74.8231 64.6799 74.8231 65.529C74.8231 66.2636 75.0857 66.855 75.611 67.3034C76.1363 67.7518 76.9841 68.1191 78.1545 68.4053L81.5274 69.2067C83.4812 69.6741 84.9372 70.3944 85.8956 71.3675C86.8541 72.3406 87.3333 73.6047 87.3333 75.1597C87.3333 76.4762 86.9647 77.6496 86.2274 78.68C85.4994 79.7008 84.481 80.5021 83.1724 81.0841C81.873 81.666 80.3663 81.957 78.6522 81.957C76.2745 81.957 74.3346 81.4323 72.8325 80.3829C71.3303 79.3239 70.4088 77.8214 70.0678 75.8752L74.0628 75.2455C74.3116 76.3236 74.8231 77.1393 75.5972 77.6926C76.3713 78.2364 77.3804 78.5083 78.6245 78.5083C79.9792 78.5083 81.062 78.2173 81.873 77.6353C82.684 77.0438 83.0895 76.3236 83.0895 75.4745C83.0895 74.7876 82.8407 74.2104 82.343 73.743C81.8546 73.2755 81.1035 72.9225 80.0898 72.684L76.4957 71.8684C74.5143 71.4009 73.0491 70.6568 72.0998 69.636C71.1598 68.6152 70.6898 67.3225 70.6898 65.7579C70.6898 64.4605 71.04 63.3252 71.7404 62.3521C72.4408 61.379 73.4085 60.6206 74.6434 60.0768C75.8783 59.5235 77.2928 59.2468 78.8872 59.2468C81.1818 59.2468 82.9881 59.762 84.3059 60.7923C85.6238 61.8131 86.4947 63.1821 86.9186 64.8993Z" fill="#313131"/>
<path d="M112.622 59.533V62.9675H106.823H101.024V59.533H106.823H112.622ZM104.134 51.8056H108.268V75.0595C108.268 75.8895 108.387 76.5144 108.627 76.9341C108.867 77.3444 109.175 77.6258 109.553 77.7784C109.94 77.9215 110.36 77.9931 110.811 77.9931C111.143 77.9931 111.433 77.9692 111.682 77.9215C111.931 77.8738 112.124 77.8357 112.263 77.8071L113.009 81.3417C112.77 81.4371 112.429 81.5325 111.986 81.6279C111.544 81.7328 110.991 81.79 110.327 81.7996C109.24 81.8187 108.226 81.6183 107.286 81.1986C106.346 80.7788 105.586 80.1301 105.005 79.2524C104.425 78.3747 104.134 77.2728 104.134 75.9467V51.8056Z" fill="#313131"/>
<path d="M157.634 51.8056H161.92V71.482C161.92 73.5331 161.454 75.3505 160.523 76.9341C159.593 78.5083 158.284 79.7485 156.598 80.6548C154.911 81.5515 152.934 81.9999 150.667 81.9999C148.409 81.9999 146.437 81.5515 144.751 80.6548C143.064 79.7485 141.756 78.5083 140.825 76.9341C139.894 75.3505 139.429 73.5331 139.429 71.482V51.8056H143.7V71.1242C143.7 72.4503 143.981 73.6285 144.544 74.6588C145.115 75.6892 145.921 76.5001 146.963 77.0916C148.004 77.6735 149.239 77.9645 150.667 77.9645C152.105 77.9645 153.344 77.6735 154.386 77.0916C155.436 76.5001 156.238 75.6892 156.791 74.6588C157.353 73.6285 157.634 72.4503 157.634 71.1242V51.8056Z" fill="#313131"/>
<path d="M176.95 82V66.9028V51.8056H181.221V66.2015H181.567L193.892 51.8056H199.27L187.4 65.4002L199.27 82H194.127L184.566 68.4196L181.221 72.3978V82H176.95Z" fill="#313131"/>
<path fill-rule="evenodd" clip-rule="evenodd" d="M203.296 51.9735L2 51.9735L2 49.9606L203.296 49.9606V51.9735Z" fill="#313131"/>
</svg>
